<?xml version="1.0" encoding="iso-8859-1"?>
<!-- Generator: Adobe Illustrator 19.0.0, SVG Export Plug-In . SVG Version: 6.00 Build 0)  -->
<svg version="1.1" id="Layer_1" xmlns="http://www.w3.org/2000/svg" xmlns:xlink="http://www.w3.org/1999/xlink" x="0px" y="0px"
	 viewBox="0 0 512.002 512.002" style="enable-background:new 0 0 512.002 512.002;" xml:space="preserve">
<g>
	<polygon style="fill:#FF4B4E;" points="224.07,260.782 166.203,357.171 29.087,391.416 86.951,295.025 	"/>
	<path style="fill:#FF4B4E;" d="M487.095,113.154l-103.762,25.914c-29.517-26.08-75.055-18.559-94.969,14.612l-6.43,10.709
		l-137.116,34.244l57.866-96.39l222.814-55.645C452.95,63.078,473.765,86.43,487.095,113.154"/>
	<path style="fill:#FF4B4E;" d="M481.145,269.413l-6.429,10.712l-96.77,24.167c-10.833-15.641-12.198-36.813-1.77-54.185
		l19.288-32.129l108.735-27.156C503.411,217.71,495.947,244.758,481.145,269.413"/>
</g>
<g>
	<path style="fill:#ECF1F9;" d="M166.203,357.171l-64.296,107.1c-14.202,23.658-44.899,31.325-68.558,17.122
		c-23.657-14.203-31.324-44.9-17.121-68.557l12.86-21.421L166.203,357.171z"/>
	<polygon style="fill:#ECF1F9;" points="281.936,164.39 224.07,260.78 86.952,295.025 144.818,198.634 	"/>
	<path style="fill:#ECF1F9;" d="M425.499,46.599l-222.814,55.646C248.772,25.475,348.73,0.511,425.499,46.599"/>
	<path style="fill:#ECF1F9;" d="M504.199,190.822l-108.735,27.156c15.715-26.176,9.949-59.358-12.13-78.908l103.762-25.914
		C499.069,137.185,504.991,163.921,504.199,190.822"/>
	<path style="fill:#ECF1F9;" d="M474.716,280.122l-12.86,21.422c-18.711,31.168-63.423,32.448-83.911,2.747L474.716,280.122z"/>
</g>
<path style="fill:#DAE0E5;" d="M95.651,472.599c-15.728,16.944-41.694,21.17-62.307,8.796C9.695,467.19,2.025,436.497,16.23,412.838
	l12.853-21.422L48.39,386.6l-10.932,18.214C14.11,443.713,54.093,489.586,95.651,472.599"/>
<path style="fill:#FF323F;" d="M106.264,290.2c-3.862,6.438-56.202,93.617-57.874,96.397l-19.308,4.818l57.876-96.397L106.264,290.2
	z"/>
<path style="fill:#DAE0E5;" d="M164.14,193.815c-7.396,12.302,2.371-3.96-57.876,96.387l-19.307,4.817l57.864-96.386L164.14,193.815
	z"/>
<path style="fill:#FF323F;" d="M202.685,102.247l20.829-5.205c-7.472,9.579-6.255,8.267-59.375,96.772l-19.32,4.818L202.685,102.247
	z"/>
<path style="fill:#DAE0E5;" d="M324.449,24.444c-39.943,9.215-77.25,36.079-100.932,72.602l-20.829,5.205
	C229.835,57.034,275.676,29.784,324.449,24.444z"/>
<path id="SVGCleanerId_0" style="fill:#ECF1F9;" d="M395.47,217.973c2.557-4.262,4.557-8.716,5.988-13.273
	c-1.046,4.421-2.638,8.773-4.775,12.966L395.47,217.973z"/>
<g>
	<path style="fill:#FF4B4E;" d="M405.233,133.602l-21.899,5.466c-29.442-26.016-75.011-18.632-94.966,14.613l-6.432,10.704
		l-137.113,34.25l57.864-96.397l213.966-53.432C408.407,75.46,404.345,103.869,405.233,133.602z"/>
	<path style="fill:#FF4B4E;" d="M459.221,284l-81.272,20.296c-10.841-15.648-12.204-36.819-1.774-54.194l19.284-32.124
		c0,0,24.209-6.046,24.387-6.091C429.119,238.126,442.506,262.421,459.221,284z"/>
</g>
<path style="fill:#ECF1F9;" d="M419.847,211.886c-0.165,0.041-24.387,6.091-24.387,6.091c15.296-25.071,10.626-58.761-12.125-78.909
	l21.899-5.466C406.073,160.978,411.153,187.284,419.847,211.886z"/>
<path style="fill:#EDF1F7;" d="M474.711,280.125l-7.921,13.204c-2.591-3.045-5.125-6.158-7.568-9.329L474.711,280.125z"/>
<path style="fill:#ECF1F9;" d="M466.79,293.329l-4.932,8.217c-18.71,31.162-63.403,32.441-83.909,2.75L459.221,284
	C461.665,287.171,464.199,290.284,466.79,293.329z"/>
<g>
	<path id="SVGCleanerId_0_1_" style="fill:#ECF1F9;" d="M395.47,217.973c2.557-4.262,4.557-8.716,5.988-13.273
		c-1.046,4.421-2.638,8.773-4.775,12.966L395.47,217.973z"/>
</g>
<path style="fill:#ECF1F9;" d="M418.631,42.705c-0.682,2.022-1.34,4.056-1.978,6.102l-213.966,53.444
	C247.404,27.75,342.87,2.035,418.631,42.705z"/>
<path style="fill:#FF5F67;" d="M504.199,190.819c-1.322,45.3-20.005,73.506-29.488,89.307L459.222,284
	c-16.715-21.579-30.102-45.874-39.374-72.114L504.199,190.819z"/>
<path style="fill:#EDF1F7;" d="M504.199,190.819l-84.352,21.068c-8.693-24.602-13.774-50.909-14.613-78.284l81.863-20.444
	C499.074,137.182,504.994,163.921,504.199,190.819z"/>
<path style="fill:#FF5F67;" d="M487.096,113.159l-81.863,20.444c-0.846-28.317,2.76-56.807,11.42-84.796l8.841-2.205
	C452.949,63.08,473.767,86.433,487.096,113.159z"/>
<path style="fill:#EDF1F7;" d="M425.494,46.602l-8.841,2.205c0.637-2.046,1.295-4.079,1.978-6.102
	C420.939,43.942,423.222,45.239,425.494,46.602z"/>
<path style="fill:#231F20;" d="M428.992,39.219c-22.969-13.18-64.792-26.004-98.315-23.892c-4.694,0.298-8.259,4.346-7.961,9.039
	c0.297,4.694,4.332,8.234,9.038,7.961c19.775-1.254,44.442,3.272,67.26,11.932c-24.316,6.074-152.624,38.116-176.836,44.163
	c20.074-24.604,47.299-42.38,78.475-50.909c4.538-1.24,7.21-5.925,5.969-10.462c-1.241-4.538-5.928-7.207-10.462-5.969
	C252.177,33.114,216.43,61.487,194.802,97.83C193.274,100.376,80.69,287.91,79.158,290.461l-0.011,0.016
	C31.605,369.676,8.731,407.774,8.472,408.206c-27.739,46.214,17.18,103.072,69.009,85.396c4.452-1.519,6.829-6.359,5.312-10.81
	c-1.519-4.452-6.36-6.83-10.811-5.312c-36.339,12.399-68.75-27.447-48.903-60.507l11.032-18.379
	c24.59-6.141,92.821-23.183,113.652-28.385l-51.238,85.348c-2.421,4.032-1.113,9.265,2.919,11.686
	c4.031,2.419,9.265,1.114,11.686-2.919c4.619-7.694,129.333-215.435,134.025-223.247c2.421-4.033,1.113-9.266-2.919-11.687
	c-4.033-2.422-9.265-1.115-11.687,2.919l-12.558,20.922l-113.652,28.382l45.426-75.671c85.298-21.302,54.453-13.598,113.652-28.383
	l-13.42,22.353c-2.421,4.033-1.114,9.264,2.919,11.687c4.031,2.419,9.263,1.112,11.687-2.919
	c2.893-4.82,27.387-45.621,30.427-50.684c17.234-28.706,56.556-35.055,81.961-12.604l0.004,0.002
	c19.418,17.201,23.816,45.833,10.457,68.087l-19.275,32.107c-26.496,44.138,13.396,99.486,64.276,86.793
	c15.148-3.782,27.915-13.237,35.951-26.622c21.813-36.335,42.041-64.213,43.525-114.778
	C513.796,127.333,480.097,69.169,428.992,39.219z M160.163,349.556l-113.65,28.383l45.424-75.67
	c48.533-12.121,32.151-8.03,113.653-28.383L160.163,349.556z M409.391,205.431c6.077-21.022,2.089-43.863-10.905-61.6
	c34.425-8.599,18.638-4.656,83.113-20.758c8.524,19.194,13.09,40.042,13.355,60.992L409.391,205.431z M324.06,116.95
	c-18.402,4.595-33.898,16.059-43.635,32.281l-4.609,7.677c-13.335,3.33-100.392,25.072-113.65,28.383l45.421-75.663
	C442.113,51.05,419.323,56.588,423.761,56.002c20.522,13.049,37.554,30.669,49.834,51.513l-88.856,22.192
	C367.547,116.385,345.457,111.605,324.06,116.95z M393.48,308.845c10.498-2.621,39.441-9.85,62.583-15.629l-2.268,3.776
	C441.236,317.919,413.321,323.616,393.48,308.845z M473.074,264.884h-0.001l-4.608,7.678c-12.89,3.219-79.992,19.977-87.156,21.767
	c-6.324-12.563-5.894-27.702,1.472-39.971l17.458-29.081c10.259-2.562,83.376-20.821,93.902-23.45
	C491.82,224.041,484.626,245.639,473.074,264.884z"/>
<g>
</g>
<g>
</g>
<g>
</g>
<g>
</g>
<g>
</g>
<g>
</g>
<g>
</g>
<g>
</g>
<g>
</g>
<g>
</g>
<g>
</g>
<g>
</g>
<g>
</g>
<g>
</g>
<g>
</g>
</svg>
