<svg id="Capa_1" data-name="Capa 1" xmlns="http://www.w3.org/2000/svg" viewBox="0 0 56 56"><title>coin25</title><g id="_Grupo_" data-name="&lt;Grupo&gt;"><path id="_Caminho_" data-name="&lt;Caminho&gt;" d="M31,56C17.47,56,6.5,43.46,6.5,28S17.47,0,31,0,55.5,12.54,55.5,28,44.53,56,31,56" style="fill:#ffd949"/><path id="_Caminho_2" data-name="&lt;Caminho&gt;" d="M6.5,28C6.5,13.7,15.89,1.91,28,.22A21.73,21.73,0,0,0,25,0C11.47,0,.5,12.54.5,28s11,28,24.5,28a21.73,21.73,0,0,0,3-.22C15.89,54.09,6.5,42.3,6.5,28" style="fill:#f4bf1a"/><path id="_Caminho_composto_" data-name="&lt;Caminho composto&gt;" d="M31.08,50.52H31a17.82,17.82,0,0,1-2.09-.12,1,1,0,1,1,.24-2,15.74,15.74,0,0,0,1.86.11,1,1,0,0,1,1,1,1,1,0,0,1-1,1m5.82-1.08a1,1,0,0,1-.35-1.94,16.44,16.44,0,0,0,1.71-.76,1,1,0,1,1,.91,1.78,18.58,18.58,0,0,1-1.91.85,1,1,0,0,1-.35.06m-13.54-.76a1,1,0,0,1-.45-.11,19.07,19.07,0,0,1-1.81-1,1,1,0,1,1,1.1-1.67,16.93,16.93,0,0,0,1.62.94,1,1,0,0,1-.45,1.89m20.11-3.56a1,1,0,0,1-.71-1.7A18.81,18.81,0,0,0,44,42a1,1,0,1,1,1.55,1.26c-.44.54-.91,1.06-1.39,1.55a1,1,0,0,1-.71.3M17.26,43.72a1,1,0,0,1-.77-.37c-.43-.53-.85-1.09-1.24-1.67a1,1,0,1,1,1.66-1.12c.35.52.73,1,1.13,1.51a1,1,0,0,1-.77,1.63m30.61-5.14a1,1,0,0,1-.92-1.4c.25-.57.48-1.17.68-1.77a1,1,0,0,1,1.9.64c-.22.65-.47,1.3-.74,1.93a1,1,0,0,1-.92.6M13.44,36.81a1,1,0,0,1-.95-.68c-.22-.65-.42-1.31-.58-2a1,1,0,0,1,1.94-.48c.15.61.33,1.23.54,1.82a1,1,0,0,1-.62,1.27,1,1,0,0,1-.32.06m36.31-5.9h-.08a1,1,0,0,1-.92-1.08c0-.61.07-1.23.07-1.84a1,1,0,0,1,1-1,1,1,0,0,1,1,1V28c0,.67,0,1.33-.08,2a1,1,0,0,1-1,.92M12.17,29a1,1,0,0,1-1-1v0c0-.68,0-1.37.08-2a1,1,0,0,1,2,.16c0,.62-.07,1.25-.07,1.88a1,1,0,0,1-1,1M49.1,23a1,1,0,0,1-1-.75c-.15-.61-.34-1.23-.54-1.82a1,1,0,0,1,1.89-.65c.22.65.42,1.31.59,2A1,1,0,0,1,49.35,23a.93.93,0,0,1-.25,0M13.43,21.23a1,1,0,0,1-.95-1.32c.22-.65.47-1.3.75-1.93a1,1,0,1,1,1.83.8c-.25.58-.48,1.17-.69,1.77a1,1,0,0,1-.95.68M45.9,15.84a1,1,0,0,1-.83-.44c-.35-.52-.73-1-1.13-1.51a1,1,0,0,1,1.54-1.27c.44.53.85,1.09,1.24,1.66a1,1,0,0,1-.83,1.56M17.23,14.32a1,1,0,0,1-.77-1.63c.44-.54.91-1.06,1.39-1.55a1,1,0,0,1,1.42,1.41c-.44.44-.86.91-1.26,1.4a1,1,0,0,1-.77.37m23.08-4a1,1,0,0,1-.54-.16,17,17,0,0,0-1.62-.93A1,1,0,0,1,39,7.41a18.77,18.77,0,0,1,1.81,1,1,1,0,0,1-.55,1.84m-17-.95a1,1,0,0,1-.45-1.89,18.48,18.48,0,0,1,1.92-.84,1,1,0,1,1,.7,1.87,16.36,16.36,0,0,0-1.71.75,1,1,0,0,1-.45.11m9.61-1.75h-.12A15.81,15.81,0,0,0,31,7.48a1,1,0,0,1-1-1,1,1,0,0,1,1-1h0a17.78,17.78,0,0,1,2,.12,1,1,0,0,1-.11,2" style="fill:#f4bf1a"/><path id="_Caminho_3" data-name="&lt;Caminho&gt;" d="M6.5,29H.5c0,.67.06,1.34.12,2h6q-.09-1-.12-2" style="fill:#dca815"/><path id="_Caminho_4" data-name="&lt;Caminho&gt;" d="M6.73,24h-6c-.08.66-.14,1.33-.18,2h6c0-.67.1-1.34.18-2" style="fill:#dca815"/><path id="_Caminho_5" data-name="&lt;Caminho&gt;" d="M7,34H1q.19,1,.45,2h6Q7.24,35,7,34" style="fill:#dca815"/><path id="_Caminho_6" data-name="&lt;Caminho&gt;" d="M8.45,39h-6c.25.68.54,1.35.84,2h6q-.45-1-.83-2" style="fill:#dca815"/><path id="_Caminho_7" data-name="&lt;Caminho&gt;" d="M7.77,19h-6c-.19.66-.38,1.32-.53,2h6c.15-.68.32-1.34.51-2" style="fill:#dca815"/><path id="_Caminho_8" data-name="&lt;Caminho&gt;" d="M9.76,14h-6c-.33.65-.64,1.32-.92,2h6q.43-1,.92-2" style="fill:#dca815"/><path id="_Caminho_9" data-name="&lt;Caminho&gt;" d="M13.85,8h-6Q7,9,6.22,10h6Q13,9,13.85,8" style="fill:#dca815"/><path id="_Caminho_10" data-name="&lt;Caminho&gt;" d="M20,3h-6A24,24,0,0,0,11,5h6A24.09,24.09,0,0,1,20,3" style="fill:#dca815"/><path id="_Caminho_11" data-name="&lt;Caminho&gt;" d="M11.52,45h-6q.7,1,1.47,2h6q-.78-1-1.48-2" style="fill:#dca815"/><path id="_Caminho_12" data-name="&lt;Caminho&gt;" d="M9.83,50a24.8,24.8,0,0,0,2.52,2h6a24.6,24.6,0,0,1-2.54-2Z" style="fill:#dca815"/></g><path d="M29.7,32.09v2.67H17.87V32.55l6-6.21a9.68,9.68,0,0,0,1.39-1.71,2.9,2.9,0,0,0,.53-1.46,1.58,1.58,0,0,0-.69-1.36,3.21,3.21,0,0,0-1.9-.49,5.55,5.55,0,0,0-2.24.53,8.59,8.59,0,0,0-2.24,1.46l-1.21-2.35a11.82,11.82,0,0,1,3-1.7,8.65,8.65,0,0,1,3.14-.61,7.23,7.23,0,0,1,2.79.5,4.3,4.3,0,0,1,1.88,1.43A3.53,3.53,0,0,1,29,22.71a4.74,4.74,0,0,1-.8,2.47A17.3,17.3,0,0,1,26,28l-4.07,4.11Z" style="fill:#dca815"/><path d="M40.87,25.24A4.88,4.88,0,0,1,43,27a4.39,4.39,0,0,1,.74,2.5,5.24,5.24,0,0,1-.78,2.85,5.12,5.12,0,0,1-2.19,1.91,7.58,7.58,0,0,1-3.29.67,10.45,10.45,0,0,1-3.14-.51A10.69,10.69,0,0,1,31.44,33l1.21-2.4a8.5,8.5,0,0,0,2.19,1.25,6.48,6.48,0,0,0,2.33.45,3.74,3.74,0,0,0,2.39-.7,2.3,2.3,0,0,0,.88-1.91,2.11,2.11,0,0,0-.87-1.81A4.33,4.33,0,0,0,37,27.25q-.82,0-2.17.06t-2.08.13V18.78H43v2.67H35.57v3.17h2.12A7.67,7.67,0,0,1,40.87,25.24Z" style="fill:#dca815"/></svg>